<?xml version="1.0" encoding="UTF-8"?>
<svg width="20px" height="20px" viewBox="0 0 20 20" version="1.1" xmlns="http://www.w3.org/2000/svg" xmlns:xlink="http://www.w3.org/1999/xlink">
    <!-- Generator: Sketch 54.1 (76490) - https://sketchapp.com -->
    <title>play-white-icon</title>
    <desc>Created with Sketch.</desc>
    <g id="Character-Detail" stroke="none" stroke-width="1" fill="none" fill-rule="evenodd">
        <g id="Desktop" transform="translate(-499.000000, -316.000000)" fill="#FFFFFF">
            <g id="character-card-luke" transform="translate(82.000000, 278.000000)">
                <g id="detail-list-item" transform="translate(417.000000, 38.000000)">
                    <g id="play-white-icon">
                        <path d="M10.0977778,0.177777778 C4.69766022,0.177777778 0.32,4.555438 0.32,9.95555556 C0.32,15.3556731 4.69766022,19.7333333 10.0977778,19.7333333 C15.4978953,19.7333333 19.8755556,15.3556731 19.8755556,9.95555556 C19.8755556,4.555438 15.4978953,0.177777778 10.0977778,0.177777778 L10.0977778,0.177777778 Z M10.0977778,18.4 C5.43403989,18.4 1.65333333,14.6192934 1.65333333,9.95555556 C1.65333333,5.29181767 5.43403989,1.51111111 10.0977778,1.51111111 C14.7615157,1.51111111 18.5422222,5.29181767 18.5422222,9.95555556 C18.5422222,14.6192934 14.7615157,18.4 10.0977778,18.4 Z" id="Shape"></path>
                        <path d="M13.36,8.75555556 L8.91555556,6.53333333 C8.50111455,6.32642132 8.00898143,6.34943879 7.61566229,6.59413042 C7.22234316,6.83882204 6.98420854,7.2701186 6.98666667,7.73333333 L6.98666667,12.1777778 C6.98729756,12.6394118 7.22667139,13.0678746 7.61945289,13.3104217 C8.01223439,13.5529688 8.50253119,13.5750861 8.91555556,13.3688889 L13.36,11.1466667 C13.8125527,10.9211153 14.0985785,10.4589788 14.0985785,9.95333333 C14.0985785,9.44768787 13.8125527,8.98555132 13.36,8.76 L13.36,8.75555556 Z M8.32,12.1777778 L8.32,7.73333333 L12.7644444,9.95555556 L8.32,12.1777778 Z" id="Shape"></path>
                    </g>
                </g>
            </g>
        </g>
    </g>
</svg>