<?xml version="1.0" encoding="UTF-8"?>
<svg width="22px" height="22px" viewBox="0 0 22 22" version="1.1" xmlns="http://www.w3.org/2000/svg" xmlns:xlink="http://www.w3.org/1999/xlink">
    <!-- Generator: Sketch 54.1 (76490) - https://sketchapp.com -->
    <title>user-circle-white-icon</title>
    <desc>Created with Sketch.</desc>
    <g id="Home" stroke="none" stroke-width="1" fill="none" fill-rule="evenodd">
        <g id="Desktop" transform="translate(-90.000000, -333.000000)" fill="#FFFFFF">
            <g id="character-card-luke" transform="translate(69.000000, 300.106583)">
                <g id="user-circle-white-icon" transform="translate(21.000000, 32.893417)">
                    <path d="M11,0 C4.92486775,0 0,4.92486775 0,11 C0,17.0751322 4.92486775,22 11,22 C17.0751322,22 22,17.0751322 22,11 C22,4.92486775 17.0751322,0 11,0 Z M1.5,11 C1.49969625,6.83928155 4.2069093,3.16250244 8.18010411,1.92747162 C12.1532989,0.692440799 16.4678416,2.18657215 18.8263273,5.61427157 C21.184813,9.041971 21.0383796,13.6055512 18.465,16.875 C17.3188629,15.1678864 15.655906,13.8729178 13.72,13.18 C14.5566371,12.2844516 15.0151898,11.1004541 15,9.875 C15,7.375 13.205,5.375 11,5.375 C8.795,5.375 7,7.375 7,9.875 C6.98756994,11.1441879 7.4846762,12.3653402 8.38,13.265 C6.43035552,13.9648587 4.78589415,15.3228655 3.73,17.105 C2.28859819,15.3974549 1.49855538,13.2345799 1.5,11 L1.5,11 Z M11.25,12.75 C10.9760816,12.7511252 10.7023966,12.7661445 10.43,12.795 C9.21317068,12.3537275 8.429074,11.1674258 8.5,9.875 C8.5,8.22 9.62,6.875 11,6.875 C12.38,6.875 13.5,8.22 13.5,9.875 C13.5616103,11.1310611 12.8241504,12.2893541 11.66,12.765 C11.525,12.76 11.39,12.75 11.25,12.75 Z M4.84,18.25 C5.92673936,16.1283684 7.97909646,14.6693291 10.34,14.34 C10.8267418,14.4350541 11.3283336,14.4231115 11.81,14.305 C14.1432687,14.6200727 16.2033602,15.9873248 17.4,18.015 C13.8739163,21.2696132 8.4702228,21.3705967 4.825,18.25 L4.84,18.25 Z" id="Shape"></path>
                </g>
            </g>
        </g>
    </g>
</svg>