<?xml version="1.0" encoding="UTF-8"?>
<svg width="14px" height="14px" viewBox="0 0 14 14" version="1.1" xmlns="http://www.w3.org/2000/svg" xmlns:xlink="http://www.w3.org/1999/xlink">
    <!-- Generator: Sketch 54.1 (76490) - https://sketchapp.com -->
    <title>arrow-right-circle-icon</title>
    <desc>Created with Sketch.</desc>
    <g id="Character-Detail" stroke="none" stroke-width="1" fill="none" fill-rule="evenodd">
        <g id="Desktop" transform="translate(-714.000000, -379.000000)" fill="#FFFFFF">
            <g id="character-card-luke" transform="translate(82.000000, 278.000000)">
                <g id="detail-list-item" transform="translate(417.000000, 38.000000)">
                    <g id="movie-list-item" transform="translate(0.000000, 53.000000)">
                        <g id="arrow-right-circle-icon" transform="translate(215.000000, 10.000000)">
                            <path d="M7.36842105,1.66533454e-16 C3.70590113,8.73384299e-15 0.736842105,2.96905903 0.736842105,6.63157895 C0.736842105,10.2940989 3.70590113,13.2631579 7.36842105,13.2631579 C11.030941,13.2631579 14,10.2940989 14,6.63157895 C14,2.96905903 11.030941,8.73384299e-15 7.36842105,8.73384299e-15 L7.36842105,1.66533454e-16 Z M7.36842105,12.5263158 C4.11284779,12.5263158 1.47368421,9.88715221 1.47368421,6.63157895 C1.47368421,3.37600569 4.11284779,0.736842105 7.36842105,0.736842105 C10.6239943,0.736842105 13.2631579,3.37600569 13.2631579,6.63157895 C13.2631579,8.19496036 12.642107,9.69430974 11.5366294,10.7997873 C10.4311518,11.9052649 8.93180247,12.5263158 7.36842105,12.5263158 Z" id="Shape"></path>
                            <path d="M7.07960254,4.10732765 C6.92629655,3.93170924 6.68739615,3.93689119 6.53922493,4.1190489 C6.39105371,4.3012066 6.38683859,4.59490433 6.5296906,4.78337458 L8.27280769,6.92631579 L6.5296906,9.069257 C6.38683859,9.25772725 6.39105371,9.55142497 6.53922493,9.73358268 C6.68739615,9.91574039 6.92629655,9.92092234 7.07960254,9.74530393 L9.37263158,6.92631579 L8.82271964,6.25026886 L7.07960254,4.10732765 Z" id="Shape"></path>
                        </g>
                    </g>
                </g>
            </g>
        </g>
    </g>
</svg>