<?xml version="1.0" encoding="UTF-8"?>
<svg width="36px" height="45px" viewBox="0 0 36 45" version="1.1" xmlns="http://www.w3.org/2000/svg" xmlns:xlink="http://www.w3.org/1999/xlink">
    <!-- Generator: Sketch 54.1 (76490) - https://sketchapp.com -->
    <title>finger-print-icon</title>
    <desc>Created with Sketch.</desc>
    <g id="Home" stroke="none" stroke-width="1" fill="none" fill-rule="evenodd">
        <g id="Desktop" transform="translate(-621.000000, -80.000000)" fill="#FFFFFF">
            <g id="finger-print-icon" transform="translate(621.000000, 80.000000)">
                <path d="M19.72,27.4 C18.7261893,27.2774148 17.7473345,27.7211999 17.1846155,28.5494716 C16.6218966,29.3777434 16.5699245,30.4512427 17.05,31.33 C18.5341643,35.0979492 21.6991719,37.9520087 25.6,39.04 C26.3802275,39.233071 27.2057527,39.0423706 27.822246,38.5266503 C28.4387392,38.01093 28.772239,37.2320614 28.72,36.43 L28.72,36.43 C20.22,36.4 19.76,27.77 19.72,27.4 Z" id="Shape"></path>
                <path d="M2.78,8.56 C3.42075974,9.08430829 4.36515081,8.99031676 4.89,8.35 C5.04,8.17 8.66,3.4 17.73,3.4 C26.8,3.4 30.42,8.16 30.56,8.34 C31.0906879,8.9335694 31.9926718,9.00908416 32.6146685,8.51201839 C33.2366653,8.01495262 33.3619236,7.11852209 32.9,6.47 C32.72,6.24 28.33,0.41 17.73,0.41 C7.13,0.41 2.73,6.25 2.56,6.47 C2.04588557,7.10855979 2.14419344,8.04248452 2.78,8.56 L2.78,8.56 Z" id="Shape"></path>
                <path d="M35.06,14.73 C34.88,14.37 30.5,5.4 17.72,5.4 C4.94,5.4 0.6,13.34 0.42,13.66 C0.00854786138,14.3807316 0.259268401,15.2985479 0.98,15.71 C1.7007316,16.1214521 2.61854786,15.8707316 3.03,15.15 C3.03,15.09 6.73,8.41 17.73,8.41 C28.73,8.41 32.24,15.79 32.39,16.08 C32.6127971,16.5867979 33.0966281,16.9296768 33.6486204,16.9719525 C34.2006126,17.0142283 34.731015,16.7490271 35.0283898,16.2820678 C35.3257646,15.8151086 35.3417601,15.2223164 35.07,14.74 L35.06,14.73 Z" id="Shape"></path>
                <path d="M17.72,10.4 C6.88,10.4 0.72,19.4 0.72,25.4 C0.72,34.75 3.31,38.11 3.66,38.46 C4.23986225,39.0305217 5.17013775,39.0305217 5.75,38.46 C6.32291673,37.8733374 6.32291673,36.9366626 5.75,36.35 C5.75,36.35 3.67,33.49 3.67,25.35 C3.67,21.42 8.15,13.35 17.67,13.35 C26.48,13.35 31.67,19.69 31.67,28.35 C31.7801359,29.1745254 31.4996862,30.0032747 30.9114804,30.5914804 C30.3232747,31.1796862 29.4945254,31.4601359 28.67,31.35 C27.7737633,31.4542566 26.8665933,31.2943722 26.06,30.89 C25.3009831,30.2423396 24.806322,29.3384265 24.67,28.35 C24.67,23.35 21.5,21.1 18.05,21.1 C16.2325923,21.0865314 14.4922983,21.8334076 13.25,23.16 C11.8203795,24.7998818 11.0757078,26.9264922 11.17,29.1 C11.17,40.05 22.7,44.1 23.17,44.27 C23.9542443,44.5461424 24.8138576,44.1342443 25.09,43.35 C25.3661424,42.5657557 24.9542443,41.7061424 24.17,41.43 C23.76,41.29 14.17,37.88 14.17,29.1 C14.0844419,27.6891639 14.5384423,26.2985643 15.44,25.21 C16.1172797,24.492419 17.0633228,24.0900788 18.05,24.1 C20.05,24.1 21.67,25.23 21.67,28.35 C21.67,30.13 23.38,32.35 24.67,33.35 C25.8407983,34.1510553 27.2599754,34.5058496 28.67,34.35 C31.97,34.35 34.67,32.41 34.67,28.35 C34.72,18.08 28.22,10.4 17.72,10.4 Z" id="Shape"></path>
                <path d="M8.72,28.4 C8.72,25.54 9.15,18.4 17.72,18.4 C21.1255006,18.2648776 24.3181319,20.0544518 25.98,23.03 C26.7188162,24.3740157 27.1428084,25.8682465 27.22,27.4 C27.22,28.2284271 27.8915729,28.9 28.72,28.9 C29.5484271,28.9 30.22,28.2284271 30.22,27.4 C30.22,27.28 30.08,15.4 17.72,15.4 C5.82,15.4 5.72,26.31 5.72,28.4 C5.72,28.56 4.92,35.72 12.66,43.46 C13.2510195,44.0107177 14.1720194,43.9944678 14.7432436,43.4232436 C15.3144678,42.8520194 15.3307177,41.9310195 14.78,41.34 C7.97,34.53 8.72,28.6 8.72,28.4 Z" id="Shape"></path>
            </g>
        </g>
    </g>
</svg>